# MagicaVoxel @ ephtracy

# material
mtllib return_btn.mtl
usemtl palette

# normals
vn -1 0 0
vn 1 0 0
vn 0 0 1
vn 0 0 -1
vn 0 -1 0
vn 0 1 0

# texcoords
vt 0.876953 0.5
vt 0.958984 0.5

# verts
v -12.5 2 0.5
v -12.5 2 -0.5
v -12.5 23 0.5
v -12.5 23 -0.5
v -10.5 0 0.5
v -10.5 0 -0.5
v -10.5 2 0.5
v -10.5 2 -0.5
v -10.5 23 0.5
v -10.5 23 -0.5
v -10.5 25 0.5
v -10.5 25 -0.5
v 10.5 0 0.5
v 10.5 0 -0.5
v 10.5 2 0.5
v 10.5 2 -0.5
v 10.5 23 0.5
v 10.5 23 -0.5
v 10.5 25 0.5
v 10.5 25 -0.5
v 12.5 2 0.5
v 12.5 2 -0.5
v 12.5 23 0.5
v 12.5 23 -0.5
v -12.5 2 0.5
v -12.5 23 0.5
v -11.5 3 0.5
v -11.5 22 0.5
v -10.5 0 0.5
v -10.5 2 0.5
v -10.5 23 0.5
v -10.5 25 0.5
v -9.5 1 0.5
v -9.5 3 0.5
v -9.5 22 0.5
v -9.5 24 0.5
v -7.5 5 0.5
v -7.5 20 0.5
v -5.5 7 0.5
v -5.5 18 0.5
v -3.5 16 0.5
v -3.5 18 0.5
v -3.5 20 0.5
v -3.5 22 0.5
v -2.5 16 0.5
v -2.5 17 0.5
v -2.5 21 0.5
v -2.5 22 0.5
v -1.5 17 0.5
v -1.5 18 0.5
v -1.5 20 0.5
v -1.5 21 0.5
v -0.5 18 0.5
v -0.5 20 0.5
v 1.5 18 0.5
v 1.5 20 0.5
v 5.5 7 0.5
v 5.5 18 0.5
v 7.5 5 0.5
v 7.5 20 0.5
v 9.5 1 0.5
v 9.5 3 0.5
v 9.5 22 0.5
v 9.5 24 0.5
v 10.5 0 0.5
v 10.5 2 0.5
v 10.5 23 0.5
v 10.5 25 0.5
v 11.5 3 0.5
v 11.5 22 0.5
v 12.5 2 0.5
v 12.5 23 0.5
v -12.5 2 -0.5
v -12.5 23 -0.5
v -11.5 3 -0.5
v -11.5 22 -0.5
v -10.5 0 -0.5
v -10.5 2 -0.5
v -10.5 23 -0.5
v -10.5 25 -0.5
v -9.5 1 -0.5
v -9.5 3 -0.5
v -9.5 22 -0.5
v -9.5 24 -0.5
v -7.5 5 -0.5
v -7.5 20 -0.5
v -5.5 7 -0.5
v -5.5 18 -0.5
v -3.5 16 -0.5
v -3.5 18 -0.5
v -3.5 20 -0.5
v -3.5 22 -0.5
v -2.5 16 -0.5
v -2.5 17 -0.5
v -2.5 21 -0.5
v -2.5 22 -0.5
v -1.5 17 -0.5
v -1.5 18 -0.5
v -1.5 20 -0.5
v -1.5 21 -0.5
v -0.5 18 -0.5
v -0.5 20 -0.5
v 1.5 18 -0.5
v 1.5 20 -0.5
v 5.5 7 -0.5
v 5.5 18 -0.5
v 7.5 5 -0.5
v 7.5 20 -0.5
v 9.5 1 -0.5
v 9.5 3 -0.5
v 9.5 22 -0.5
v 9.5 24 -0.5
v 10.5 0 -0.5
v 10.5 2 -0.5
v 10.5 23 -0.5
v 10.5 25 -0.5
v 11.5 3 -0.5
v 11.5 22 -0.5
v 12.5 2 -0.5
v 12.5 23 -0.5
v -10.5 0 0.5
v 10.5 0 0.5
v -10.5 0 -0.5
v 10.5 0 -0.5
v -12.5 2 0.5
v -10.5 2 0.5
v 10.5 2 0.5
v 12.5 2 0.5
v -12.5 2 -0.5
v -10.5 2 -0.5
v 10.5 2 -0.5
v 12.5 2 -0.5
v -12.5 23 0.5
v -10.5 23 0.5
v 10.5 23 0.5
v 12.5 23 0.5
v -12.5 23 -0.5
v -10.5 23 -0.5
v 10.5 23 -0.5
v 12.5 23 -0.5
v -10.5 25 0.5
v 10.5 25 0.5
v -10.5 25 -0.5
v 10.5 25 -0.5

# faces
f 3/1/1 2/1/1 1/1/1
f 4/1/1 2/1/1 3/1/1
f 7/1/1 6/1/1 5/1/1
f 8/1/1 6/1/1 7/1/1
f 11/1/1 10/1/1 9/1/1
f 12/1/1 10/1/1 11/1/1
f 13/1/2 14/1/2 15/1/2
f 15/1/2 14/1/2 16/1/2
f 17/1/2 18/1/2 19/1/2
f 19/1/2 18/1/2 20/1/2
f 21/1/2 22/1/2 23/1/2
f 23/1/2 22/1/2 24/1/2
f 27/1/3 26/1/3 25/1/3
f 28/1/3 26/1/3 27/1/3
f 30/1/3 27/1/3 25/1/3
f 31/1/3 26/1/3 28/1/3
f 33/1/3 30/1/3 29/1/3
f 34/2/3 28/2/3 27/2/3
f 34/1/3 30/1/3 33/1/3
f 34/1/3 27/1/3 30/1/3
f 35/1/3 32/1/3 31/1/3
f 35/2/3 28/2/3 34/2/3
f 35/1/3 31/1/3 28/1/3
f 36/1/3 32/1/3 35/1/3
f 37/2/3 34/2/3 33/2/3
f 37/2/3 35/2/3 34/2/3
f 37/2/3 36/2/3 35/2/3
f 38/2/3 36/2/3 37/2/3
f 39/1/3 38/1/3 37/1/3
f 40/1/3 38/1/3 39/1/3
f 41/2/3 40/2/3 39/2/3
f 42/1/3 38/1/3 40/1/3
f 42/2/3 40/2/3 41/2/3
f 43/2/3 36/2/3 38/2/3
f 43/1/3 38/1/3 42/1/3
f 44/2/3 36/2/3 43/2/3
f 45/1/3 42/1/3 41/1/3
f 45/2/3 41/2/3 39/2/3
f 45/1/3 44/1/3 43/1/3
f 45/1/3 43/1/3 42/1/3
f 46/1/3 44/1/3 45/1/3
f 47/1/3 44/1/3 46/1/3
f 48/2/3 36/2/3 44/2/3
f 48/1/3 44/1/3 47/1/3
f 49/1/3 47/1/3 46/1/3
f 49/2/3 46/2/3 45/2/3
f 50/1/3 47/1/3 49/1/3
f 51/1/3 47/1/3 50/1/3
f 52/2/3 48/2/3 47/2/3
f 52/1/3 47/1/3 51/1/3
f 53/1/3 51/1/3 50/1/3
f 53/2/3 50/2/3 49/2/3
f 54/2/3 52/2/3 51/2/3
f 54/1/3 51/1/3 53/1/3
f 55/2/3 53/2/3 49/2/3
f 55/2/3 54/2/3 53/2/3
f 56/2/3 52/2/3 54/2/3
f 56/2/3 54/2/3 55/2/3
f 57/1/3 39/1/3 37/1/3
f 57/2/3 45/2/3 39/2/3
f 57/2/3 49/2/3 45/2/3
f 57/2/3 55/2/3 49/2/3
f 58/1/3 56/1/3 55/1/3
f 58/2/3 55/2/3 57/2/3
f 59/2/3 37/2/3 33/2/3
f 59/1/3 57/1/3 37/1/3
f 59/1/3 58/1/3 57/1/3
f 60/1/3 56/1/3 58/1/3
f 60/1/3 58/1/3 59/1/3
f 60/2/3 52/2/3 56/2/3
f 61/1/3 33/1/3 29/1/3
f 61/2/3 59/2/3 33/2/3
f 61/2/3 60/2/3 59/2/3
f 62/2/3 60/2/3 61/2/3
f 63/2/3 52/2/3 60/2/3
f 63/2/3 60/2/3 62/2/3
f 63/2/3 48/2/3 52/2/3
f 63/2/3 36/2/3 48/2/3
f 64/1/3 32/1/3 36/1/3
f 64/2/3 36/2/3 63/2/3
f 65/1/3 62/1/3 61/1/3
f 65/1/3 61/1/3 29/1/3
f 66/1/3 62/1/3 65/1/3
f 67/1/3 64/1/3 63/1/3
f 68/1/3 32/1/3 64/1/3
f 68/1/3 64/1/3 67/1/3
f 69/2/3 63/2/3 62/2/3
f 69/1/3 62/1/3 66/1/3
f 70/1/3 67/1/3 63/1/3
f 70/2/3 63/2/3 69/2/3
f 71/1/3 69/1/3 66/1/3
f 71/1/3 70/1/3 69/1/3
f 72/1/3 67/1/3 70/1/3
f 72/1/3 70/1/3 71/1/3
f 73/1/4 74/1/4 75/1/4
f 75/1/4 74/1/4 76/1/4
f 73/1/4 75/1/4 78/1/4
f 76/1/4 74/1/4 79/1/4
f 77/1/4 78/1/4 81/1/4
f 75/2/4 76/2/4 82/2/4
f 81/1/4 78/1/4 82/1/4
f 78/1/4 75/1/4 82/1/4
f 79/1/4 80/1/4 83/1/4
f 82/2/4 76/2/4 83/2/4
f 76/1/4 79/1/4 83/1/4
f 83/1/4 80/1/4 84/1/4
f 81/2/4 82/2/4 85/2/4
f 82/2/4 83/2/4 85/2/4
f 83/2/4 84/2/4 85/2/4
f 85/2/4 84/2/4 86/2/4
f 85/1/4 86/1/4 87/1/4
f 87/1/4 86/1/4 88/1/4
f 87/2/4 88/2/4 89/2/4
f 88/1/4 86/1/4 90/1/4
f 89/2/4 88/2/4 90/2/4
f 86/2/4 84/2/4 91/2/4
f 90/1/4 86/1/4 91/1/4
f 91/2/4 84/2/4 92/2/4
f 89/1/4 90/1/4 93/1/4
f 87/2/4 89/2/4 93/2/4
f 91/1/4 92/1/4 93/1/4
f 90/1/4 91/1/4 93/1/4
f 93/1/4 92/1/4 94/1/4
f 94/1/4 92/1/4 95/1/4
f 92/2/4 84/2/4 96/2/4
f 95/1/4 92/1/4 96/1/4
f 94/1/4 95/1/4 97/1/4
f 93/2/4 94/2/4 97/2/4
f 97/1/4 95/1/4 98/1/4
f 98/1/4 95/1/4 99/1/4
f 95/2/4 96/2/4 100/2/4
f 99/1/4 95/1/4 100/1/4
f 98/1/4 99/1/4 101/1/4
f 97/2/4 98/2/4 101/2/4
f 99/2/4 100/2/4 102/2/4
f 101/1/4 99/1/4 102/1/4
f 97/2/4 101/2/4 103/2/4
f 101/2/4 102/2/4 103/2/4
f 102/2/4 100/2/4 104/2/4
f 103/2/4 102/2/4 104/2/4
f 85/1/4 87/1/4 105/1/4
f 87/2/4 93/2/4 105/2/4
f 93/2/4 97/2/4 105/2/4
f 97/2/4 103/2/4 105/2/4
f 103/1/4 104/1/4 106/1/4
f 105/2/4 103/2/4 106/2/4
f 81/2/4 85/2/4 107/2/4
f 85/1/4 105/1/4 107/1/4
f 105/1/4 106/1/4 107/1/4
f 106/1/4 104/1/4 108/1/4
f 107/1/4 106/1/4 108/1/4
f 104/2/4 100/2/4 108/2/4
f 77/1/4 81/1/4 109/1/4
f 81/2/4 107/2/4 109/2/4
f 107/2/4 108/2/4 109/2/4
f 109/2/4 108/2/4 110/2/4
f 108/2/4 100/2/4 111/2/4
f 110/2/4 108/2/4 111/2/4
f 100/2/4 96/2/4 111/2/4
f 96/2/4 84/2/4 111/2/4
f 84/1/4 80/1/4 112/1/4
f 111/2/4 84/2/4 112/2/4
f 109/1/4 110/1/4 113/1/4
f 77/1/4 109/1/4 113/1/4
f 113/1/4 110/1/4 114/1/4
f 111/1/4 112/1/4 115/1/4
f 112/1/4 80/1/4 116/1/4
f 115/1/4 112/1/4 116/1/4
f 110/2/4 111/2/4 117/2/4
f 114/1/4 110/1/4 117/1/4
f 111/1/4 115/1/4 118/1/4
f 117/2/4 111/2/4 118/2/4
f 114/1/4 117/1/4 119/1/4
f 117/1/4 118/1/4 119/1/4
f 118/1/4 115/1/4 120/1/4
f 119/1/4 118/1/4 120/1/4
f 123/1/5 122/1/5 121/1/5
f 124/1/5 122/1/5 123/1/5
f 129/1/5 126/1/5 125/1/5
f 130/1/5 126/1/5 129/1/5
f 131/1/5 128/1/5 127/1/5
f 132/1/5 128/1/5 131/1/5
f 133/1/6 134/1/6 137/1/6
f 137/1/6 134/1/6 138/1/6
f 135/1/6 136/1/6 139/1/6
f 139/1/6 136/1/6 140/1/6
f 141/1/6 142/1/6 143/1/6
f 143/1/6 142/1/6 144/1/6
